<svg xmlns="http://www.w3.org/2000/svg" viewBox="0 0 24 24" fill="none">
  <!-- Background Circle -->
  <circle cx="12" cy="12" r="11" fill="#2563eb" opacity="0.1"/>
  
  <!-- Wallet Icon -->
  <path d="M19 7V4a1 1 0 0 0-1-1H5a2 2 0 0 0 0 4h15a1 1 0 0 1 1 1v4h-3a2 2 0 0 0 0 4h3a1 1 0 0 0 1-1v-2a1 1 0 0 0-1-1" 
        stroke="#2563eb" 
        stroke-width="2" 
        stroke-linecap="round" 
        stroke-linejoin="round" 
        fill="none"/>
  <path d="M3 5v14a2 2 0 0 0 2 2h15a1 1 0 0 0 1-1v-4" 
        stroke="#2563eb" 
        stroke-width="2" 
        stroke-linecap="round" 
        stroke-linejoin="round" 
        fill="none"/>
</svg>
